<?xml version="1.0" encoding="utf-8"?>
<!-- Generator: Adobe Illustrator 16.0.0, SVG Export Plug-In . SVG Version: 6.00 Build 0)  -->
<!DOCTYPE svg PUBLIC "-//W3C//DTD SVG 1.1//EN" "http://www.w3.org/Graphics/SVG/1.1/DTD/svg11.dtd">
<svg version="1.1" id="Layer_1" xmlns="http://www.w3.org/2000/svg" xmlns:xlink="http://www.w3.org/1999/xlink" x="0px" y="0px"
	 width="612px" height="363.461px" viewBox="0 0 612 363.461" enable-background="new 0 0 612 363.461" xml:space="preserve">
<path id="cloud2" fill="none" stroke="#000000" stroke-width="3" stroke-miterlimit="10" d="M51.833,185.285
	c6.969-4.355,17.614-4.866,24.319,0.315c3.324-12.601,16.88-17.1,28.233-18.602c2.482,0.89,4.159-1.67,6.674-0.817
	c0-10.243,7.546-19.633,16.77-23.047c15.931-6.828,36.894-7.682,49.471,6.829c5.031,5.122,11.738,5.975,17.608,7.682
	c7.546,2.561,11.739,10.243,15.093,17.072c9.224,1.707,18.446,5.122,23.478,12.804c7.546,2.561,15.931,2.561,21.8,7.683
	c0.838,1.707,2.515,2.561,4.192,4.268c5.031,5.121,6.708,12.804,6.708,19.632c0,5.122-2.515,9.39-6.708,12.804
	c-4.192,3.414-8.385,2.561-13.416,3.414c-13.416,0-25.993-1.707-39.409,0c-15.092,1.708-31.023,7.683-46.117,1.708
	c-3.354-0.854-6.708-2.561-10.062-1.708c-20.124,11.097-43.601,10.243-63.725,0c-2.515-0.854-4.192-1.707-6.708-1.707
	c-10.9,1.707-20.962,1.707-31.863,1.707c-7.546,0.854-15.093-0.854-19.285-7.683c-3.973-8.9,0.408-18.214,7.387-23.982
	c3.918-3.238,4.979-3.939,7.517-8.382C45.987,191.431,47.974,187.696,51.833,185.285z"/>
<path id="cloud1" fill="none" stroke="#000000" stroke-width="3" stroke-miterlimit="10" d="M320.762,74.249
	c7.806-4.911,19.729-5.487,27.238,0.354c3.723-14.208,18.907-19.281,31.623-20.974c2.779,1.004,4.657-1.883,7.475-0.921
	c0-11.55,8.453-22.137,18.783-25.987c17.844-7.7,41.322-8.662,55.409,7.7c5.635,5.775,13.148,6.737,19.722,8.663
	c8.452,2.887,13.148,11.549,16.905,19.249c10.33,1.925,20.661,5.775,26.296,14.437c8.452,2.888,17.843,2.888,24.417,8.662
	c0.939,1.925,2.817,2.888,4.696,4.813c5.635,5.775,7.513,14.437,7.513,22.137c0,5.775-2.817,10.587-7.513,14.437
	c-4.696,3.85-9.392,2.887-15.026,3.85c-15.026,0-29.113-1.925-44.14,0c-16.904,1.925-34.748,8.662-51.652,1.925
	c-3.757-0.962-7.514-2.888-11.271-1.925c-22.539,12.512-48.835,11.549-71.374,0c-2.817-0.963-4.696-1.925-7.514-1.925
	c-12.208,1.925-23.479,1.925-35.687,1.925c-8.452,0.962-16.905-0.963-21.601-8.663c-4.45-10.036,0.457-20.537,8.274-27.041
	c4.389-3.651,5.577-4.442,8.42-9.452C314.215,81.179,316.44,76.967,320.762,74.249z"/>
</svg>
