<?xml version="1.0" encoding="utf-8"?>
<!-- Generator: Adobe Illustrator 16.0.0, SVG Export Plug-In . SVG Version: 6.00 Build 0)  -->
<!DOCTYPE svg PUBLIC "-//W3C//DTD SVG 1.1//EN" "http://www.w3.org/Graphics/SVG/1.1/DTD/svg11.dtd">
<svg version="1.1" id="Layer_1" xmlns="http://www.w3.org/2000/svg" xmlns:xlink="http://www.w3.org/1999/xlink" x="0px" y="0px"
	 width="612px" height="792px" viewBox="0 0 612 792" enable-background="new 0 0 612 792" xml:space="preserve">
	 <defs>
		<style>
			#face{
				stroke-dasharray: 10000;
				stroke-dashoffset: 10000;
				-webkit-animation: draw 10s forwards;
				-moz-animation: draw 10s forwards;
				-o-animation: draw 10s forwards;
				-ms-animation: draw 10s forwards;
				animation: draw 10s forwards;
			}
			@-webkit-keyframes draw {
			  100% {
				stroke-dashoffset: 0;
			  }
			}
			@-moz-keyframes draw {
			  100% {
				stroke-dashoffset: 0;
			  }
			}
			@-o-keyframes draw {
			  100% {
				stroke-dashoffset: 0;
			  }
			}
			@-ms-keyframes draw {
			  100% {
				stroke-dashoffset: 0;
			  }
			}
			@keyframes draw {
			  100% {
				stroke-dashoffset: 0;
			  }
			}
			
			#all{				
				animation-name: allBalance;
				animation-duration: 4s;
				animation-iteration-count: infinite;
				transform-origin: 50%;
			}
			
			@-webkit-keyframes allBalance { 
				0% { -webkit-transform: translateY(10px) translateX(10px) rotate(0deg); }
				33% { -webkit-transform: translateY(30px) translateX(30px) rotate(-10deg); }
				66% { -webkit-transform:  translateY(10px) translateX(10px) rotate(0deg); }
				99% { -webkit-transform:  translateY(30px) translateX(30px) rotate(10deg);}
			}
		</style>
	 </defs>
<g id="all">
<g id="face">
	<path fill="none" stroke="#000000" stroke-width="4" stroke-miterlimit="10" d="M171.191,395.866
		C173.5,338.5,170.5,282.5,173.5,225.5c0-13,6-27,18-34c10-5,21-7,31.566-7.059"/>
	<path fill="none" stroke="#000000" stroke-width="4" stroke-miterlimit="10" d="M432.784,238.035
		C420.5,233.5,405.5,235.5,392.5,235.5c-10,1-20,3-28,10c-7,7-11,16-13,26c-1,12,3,25-2,37c-3,8-15,3-23,6c-7,11-4,26,0,38
		c1,1,3,2,5,1c7-3,16-4,19,4s3,17,2,25c-2,12-1,24-2.604,36.471"/>
	<path fill="none" stroke="#000000" stroke-width="4" stroke-miterlimit="10" d="M399.059,413.64
		C397.5,394.5,397.5,376.5,397.5,357.5c6-10,20-3,30-4c3-1,5-3,6-6c2-6,2-13,4-19c2-9-1-19-12-17c-10,1-21,6-28-2c-5-6-4-14-1-21
		c6-12,21-10,32.424-10.059"/>
	<path fill="none" stroke="#000000" stroke-width="4" stroke-miterlimit="10" d="M471.823,293.961
		c-0.078,34.369,2.001,68.678,2.953,103.017"/>
	<path fill="none" stroke="#000000" stroke-width="4" stroke-miterlimit="10" d="M247.293,181.285
		c61.328,0.178,123.132,0.178,184.219,2.259c5.031,0.693,10.062,0.693,15.092,2.08c10.78,4.161,19.404,12.483,23.717,22.886
		c7.187,18.725,1.438,38.143,2.136,57.107"/>
	<path fill="none" stroke="#000000" stroke-width="4" stroke-miterlimit="10" d="M429.356,238.33
		c7.417-3.428,6.229,16.644,6.229,20.805c0,8.023,1.982,21.083-9.583,19.88"/>
	<path fill="none" stroke="#000000" stroke-width="4" stroke-miterlimit="10" d="M221.901,184.237
		c8.14-1.663,17.125-1.69,25.393-2.774"/>
	<path fill="none" stroke="#000000" stroke-width="4" stroke-miterlimit="10" d="M472.477,264.683
		c0,10.017-0.958,19.389-0.958,29.127"/>
</g>
<g id="float">
	<path fill="none" stroke="#000000" stroke-width="4" stroke-miterlimit="10" d="M163.5,381.5c-6,7-2,16,5,20c38,18,81,22,122,24
		c53.144,2.593,107.054-2.269,158-16.948c7.539-2.173,55.642-21.929,33-33.052"/>
	<path fill="none" stroke="#000000" stroke-width="4" stroke-miterlimit="10" d="M519.937,463.555
		c-10.92,11.504-24.489,20.141-38.354,27.65c-7.115,3.854-14.378,7.426-21.656,10.956c-7.653,3.713-15.207,7.797-23.339,10.374
		c-18.593,5.892-38.537,6.016-57.854,5.987c-22.397-0.032-44.801,0.188-67.196-0.187c-11.337-0.19-22.915-0.052-34.178-1.479
		c-10.991-1.393-21.563-4.587-32.142-7.752c-9.903-2.963-20.044-4.792-30.333-5.729c-9.816-0.895-19.63-0.981-29.361-2.708
		c-18.908-3.355-37.481-10.33-53.768-20.53c-15.322-9.597-25.318-23.873-33.652-39.67c-8.423-15.965-14.474-32.972-9.715-51.12
		c4.793-18.275,19.191-31.404,35.469-39.85c12.896-6.691,26.812-11.163,39.642-17.998"/>
	<path fill="none" stroke="#000000" stroke-width="4" stroke-miterlimit="10" d="M472.5,323.5
		c11.438-0.66,30.426,11.913,38.729,19.526c9.527,8.735,17.841,23.227,23.548,35.2c11.655,24.45,12.438,64.005-11.5,83.018
		c-1.117,0.888-2.576,1.598-3.777,2.255"/>
	<path fill="none" stroke="#000000" stroke-width="4" stroke-miterlimit="10" d="M160.573,393.488
		c-1.454-17.515-25.198-34.006-39.073-40.988"/>
	<path fill="none" stroke="#000000" stroke-width="4" stroke-miterlimit="10" d="M162.5,331.5c1.885-0.12,3.322-0.412,5-1"/>
	<path fill="none" stroke="#000000" stroke-width="4" stroke-miterlimit="10" d="M161.5,385.5c1.491-2.726,4.037-4.551,7-5"/>
	<path fill="none" stroke="#000000" stroke-width="4" stroke-miterlimit="10" d="M486.5,383.5c7.798-12.448,26.662-15.958,40-16"/>
	<path fill="none" stroke="#000000" stroke-width="4" stroke-miterlimit="10" d="M441.5,411.5c19.33,0,32.111,2.011,46.996,14.026
		c14.049,11.341,22.875,25.97,23.004,43.974"/>
	<path fill="none" stroke="#000000" stroke-width="4" stroke-miterlimit="10" d="M183.5,410.5c-25.014,3.089-66.032,29.597-62,59"/>
	<path fill="none" stroke="#000000" stroke-width="4" stroke-miterlimit="10" d="M258.5,425.5c-24.047,19.25-43.3,43.549-41,76"/>
	<path d="M172.5,334c-0.042-5.662-7.761-6.353-9.605-2.065c-0.752,0.34-1.355,0.854-1.796,1.481
		c-0.866-0.055-1.763,0.162-2.622,0.767c-7.147,5.026-15.278,7.744-23.306,10.996c-0.903,0.366-1.605,0.903-2.129,1.542
		c-0.466-0.14-0.978-0.22-1.542-0.22c-0.757,0-1.421,0.142-2,0.385c-0.579-0.243-1.243-0.385-2-0.385c-6.449,0-6.449,10,0,10
		c0.757,0,1.421-0.142,2-0.385c0.579,0.243,1.243,0.385,2,0.385c0.019,0,0.036-0.002,0.055-0.003
		c-0.322,1.974,0.728,4.111,2.421,5.32c7.449,5.315,14.897,9.838,19.785,17.642c-0.514,2.794,1.063,6.041,4.739,6.041
		c3.028,0,4.634-2.206,4.818-4.545c0.163-0.24,0.317-0.484,0.471-0.728c0.509,0.174,1.078,0.273,1.711,0.273
		c3.157,0,4.765-2.397,4.83-4.844c2.877-4.911,2.791-11.881,2.902-17.187C173.404,350.298,172.561,342.163,172.5,334z"/>
	<path d="M251,421c-2.125,0.011-4.098,0.439-5.946,1.155c-7.865,0.641-15.97-3.475-23.68-4.477
		c-11.965-1.556-23.293-5.947-35.044-8.5c-1.603-0.349-3.758-0.123-4.865,1.286c-2.235,2.847-6.372,3.731-9.673,4.762
		c-4.714,1.471-9.137,2.807-13.498,5.173c-9.859,5.351-20.042,11.479-27.409,20.093c-4.113,4.809-6.638,10.257-6.733,16.006
		c-1.996,1.594-3.691,3.44-4.43,5.763c-3.134,9.85,11.929,17.599,18.693,21.182c22.297,11.811,49.121,20.776,74.586,19.058
		c2.442-0.165,5.365-2.165,5-5c-2.208-17.15,3.223-33.107,12.867-46.857c3.373-3.646,6.573-7.524,10.657-10.325
		c1.65-1.132,2.29-2.75,2.242-4.33c2.674-0.119,4.176-2.001,4.501-4.105c1.345-0.222,2.698-0.562,4.062-1.061
		C257.45,428.951,256.914,420.97,251,421z"/>
	<path d="M531.276,372.727c-0.175-0.248-0.357-0.476-0.54-0.707c1.527-2.961,0.118-7.52-4.236-7.52
		c-2.014,0-3.398,0.975-4.154,2.316c-8.35-1.737-18.679,3-25.52,7.478c-5.049,3.305-7.316,8.485-10.145,13.441
		c-1.295,0.853-2.581,1.733-3.854,2.674c-6.199,4.585-13.255,7.673-19.469,12.147c-0.657-0.349-1.44-0.557-2.359-0.557
		c-1.728,0-2.988,0.722-3.79,1.772c-0.37-0.126-0.783-0.195-1.218-0.233c-0.762,0.593-1.758,0.961-2.992,0.961
		c-0.171,0-0.335-0.011-0.496-0.024c-3.205,2.509-2.212,9.024,2.996,9.024c1.728,0,2.988-0.722,3.79-1.772
		C459.799,411.9,460.367,412,461,412c0.396,0,0.766-0.039,1.113-0.109c1.018,0.865,2.453,1.171,4.216,0.431
		c0.198-0.083,0.399-0.16,0.598-0.241c0.567,1.395,1.713,2.622,3.244,3.241c9.337,3.775,18.545,8.207,26.239,14.749
		c0.263,0.888,0.605,1.752,1.047,2.572c1.498,2.786,5.416,6.768,8.93,11.044c0.18,0.552,0.348,1.109,0.487,1.682
		c1.042,4.271,1.433,8.616,3.707,12.468c-0.037,0.043-0.079,0.085-0.116,0.129c-0.002,0.002-0.004,0.005-0.006,0.007
		c-0.366,0.403-0.655,0.867-0.865,1.368c-0.025,0.058-0.046,0.115-0.068,0.174c-0.027,0.07-0.055,0.142-0.078,0.214
		c-0.039,0.114-0.072,0.229-0.102,0.345c-0.008,0.026-0.014,0.053-0.021,0.079c-0.027,0.113-0.051,0.226-0.069,0.338
		c-0.021,0.112-0.035,0.225-0.048,0.338l-0.003,0.021c-0.077,0.681-0.037,1.378,0.128,2.04c-2.227,4.226,3.907,9.476,8.202,5.647
		c3.05-2.718,4.628-5.652,5.166-8.675c4.344-3.941,8.955-7.655,11.94-12.741c2.145-3.653,3.249-7.973,4.235-12.049
		c1.254-5.182,2.662-10.357,3.472-15.629C544.761,403.725,540.492,385.816,531.276,372.727z"/>
	<path fill="none" stroke="#000000" stroke-width="4" stroke-miterlimit="10" d="M334.5,427.833
		c-0.619,6.869-5.034,13.081-7.519,19.331c-2.865,7.211-4.898,15.607-5.963,23.336c-2.103,15.268-1.852,30.918-1.852,46.667"/>
	<path fill="none" stroke="#000000" stroke-width="4" stroke-miterlimit="10" d="M391.167,422.5
		c9.256,11.027,15.959,30.578,19.333,44.635c3.755,15.646,4.507,34.538,2.667,50.497c0-0.597-0.036-1.204,0-1.799"/>
	<path d="M413.797,504.138c-0.166-7.633-0.714-15.293-0.922-22.938c-0.188-6.924-1.274-13.571-3.553-20.112
		c-2.055-5.897-4.817-11.51-6.673-17.48c-2.573-8.281-5.348-19.704-15.153-21.929c-6.172-1.4-13.121,0.495-19.175,1.672
		c-7.63,1.482-15.342,0.339-23.007,1.409c-2.696,0.377-4.894,1.337-6.735,2.695c-3.381-0.18-6.8,2.859-5.279,6.28
		c-2.441,4.313-4.02,9.476-5.933,13.935c-3.89,9.063-6.97,19.547-5.73,29.543c-0.328,1.906-0.634,3.817-0.888,5.738
		c-1.327,10.029-0.262,20.185-1.582,30.216c-0.387,2.94,2.589,4.695,5,5c15.743,1.987,31.587,1.013,47.396,0.718
		c7.304-0.137,14.607-0.017,21.911-0.228c4.639-0.136,11.438,0.459,15.708-2.174c3.667-0.217,5.085-3.783,4.252-6.596
		C413.803,508.023,413.839,506.04,413.797,504.138z"/>
	<path fill="none" stroke="#F9F9F9" stroke-miterlimit="10" d="M532,401c4.657-2.578,9.015-0.733,12,3"/>
	<path fill="none" stroke="#F9F9F9" stroke-miterlimit="10" d="M544,403.5c4.639,4.207-0.2,14.547-0.5,19.5"/>
	<path fill="none" stroke="#F9F9F9" stroke-miterlimit="10" d="M529,420.5c4.148-1.107,10.408-2.515,13,2"/>
	<path fill="none" stroke="#F9F9F9" stroke-miterlimit="10" d="M151.5,455.5c-4.302,0.766-6.23,5.325-7.5,8.5"/>
	<path fill="none" stroke="#F9F9F9" stroke-miterlimit="10" d="M173,461.5c-3.633,0.229-8.855,4.468-8.5,8.5"/>
	<path fill="none" stroke="#F9F9F9" stroke-miterlimit="10" d="M144,463.5c6.311,0.896,12.859,2.722,18,6"/>
	<path fill="none" stroke="#F9F9F9" stroke-miterlimit="10" d="M349,479c-1.438,4.145-3.364,8.081-2,12.5"/>
	<path fill="none" stroke="#F9F9F9" stroke-miterlimit="10" d="M372.5,477c1.809,4.385,2.854,8.672,3,13.5"/>
	<path fill="none" stroke="#F9F9F9" stroke-miterlimit="10" d="M348.5,492.5c5.933,0.625,18.967,0.659,24-1.5"/>
	<path fill="none" stroke="#000000" stroke-width="3" stroke-miterlimit="10" d="M376.5,482.5
		c20.692-4.428,42.511,0.041,61.82,6.774c16.454,5.736,32.967,14.322,51.426,12.249c9.09-1.021,24.484-5.2,31.528-11.274
		c7.243-6.247,5.51-13.306,7.202-21.749c3.398-16.949,8.023-30.058,8.023-48"/>
	<path fill="none" stroke="#000000" stroke-width="3" stroke-miterlimit="10" d="M346.5,484.5c-17.121,0-31.212-0.881-43.997,11.249
		c-11.448,10.862-17.511,25.312-32.952,32.002c-32.743,14.187-73.884-9.932-91.052-38.228c-4.679-7.712-3.925-19.247-10-25.023"/>
	<path fill="none" stroke="#000000" stroke-width="3" stroke-miterlimit="10" d="M147.5,456.5
		c-12.158-7.523-17.055-16.835-32-20.781c-11.74-3.1-25.754-3.655-35.251-11.972C62.393,408.109,74.143,371.538,97.5,367.5"/>
</g>
</g>
</svg>
