<?xml version="1.0" encoding="utf-8"?>
<!-- Generator: Adobe Illustrator 16.0.0, SVG Export Plug-In . SVG Version: 6.00 Build 0)  -->
<!DOCTYPE svg PUBLIC "-//W3C//DTD SVG 1.1//EN" "http://www.w3.org/Graphics/SVG/1.1/DTD/svg11.dtd">
<svg version="1.1" id="Layer_1" xmlns="http://www.w3.org/2000/svg" xmlns:xlink="http://www.w3.org/1999/xlink" x="0px" y="0px"
	 width="434.615px" height="321.795px" viewBox="0 0 434.615 321.795" enable-background="new 0 0 434.615 321.795"
	 xml:space="preserve">
	 
	 	 	 
	 	 	 	 	  	  	  <defs>
		<style>
			#keyboard{
				stroke-dasharray: 10000;
				stroke-dashoffset: 10000;
				-webkit-animation: draw 10s forwards;
				-moz-animation: draw 10s forwards;
				-o-animation: draw 10s forwards;
				-ms-animation: draw 10s forwards;
				animation: draw 10s forwards;
			}
			@-webkit-keyframes draw {
			  100% {
				stroke-dashoffset: 0;
			  }
			}
			@-moz-keyframes draw {
			  100% {
				stroke-dashoffset: 0;
			  }
			}
			@-o-keyframes draw {
			  100% {
				stroke-dashoffset: 0;
			  }
			}
			@-ms-keyframes draw {
			  100% {
				stroke-dashoffset: 0;
			  }
			}
			@keyframes draw {
			  100% {
				stroke-dashoffset: 0;
			  }
			}
			
			#rightArrow{
				animation-name: rightClick;
				animation-duration: 5s;
				animation-iteration-count: infinite;
				transform-origin: 50%;
			}
			
			#leftArrow{
				animation-name: leftClick;
				animation-duration: 5s;
				animation-iteration-count: infinite;
				transform-origin: 50%;
			}

			
			@-webkit-keyframes rightClick { 
			  0% { -webkit-transform: scaleX(1) scaleY(1); } 
			  10% { -webkit-transform: scaleX(0.7) scaleY(0.7); } 
			  20% { -webkit-transform: scaleX(1) scaleY(1); } 
			  30% { -webkit-transform: scaleX(0.7) scaleY(0.7); } 
			  40% { -webkit-transform: scaleX(1) scaleY(1); } 
			  50% { -webkit-transform: scaleX(0.7) scaleY(0.7);} 
			  60% { -webkit-transform: scaleX(1) scaleY(1); } 
			  70% { -webkit-transform: scaleX(0.7) scaleY(0.7); }
			  80% { -webkit-transform: scaleX(1) scaleY(1); }
			  90% { -webkit-transform: scaleX(0.7) scaleY(0.7); }
			  100% { -webkit-transform: scaleX(1) scaleY(1); }
			}
			
			@-webkit-keyframes leftClick { 
			  0% { -webkit-transform: scaleX(0.7) scaleY(0.7); } 
			  10% { -webkit-transform: scaleX(1) scaleY(1); } 
			  20% { -webkit-transform: scaleX(0.7) scaleY(0.7); } 
			  30% { -webkit-transform: scaleX(1) scaleY(1); } 
			  40% { -webkit-transform: scaleX(0.7) scaleY(0.7); } 
			  50% { -webkit-transform: scaleX(1) scaleY(1);} 
			  60% { -webkit-transform: scaleX(0.7) scaleY(0.7); } 
			  70% { -webkit-transform: scaleX(1) scaleY(1); }
			  80% { -webkit-transform: scaleX(0.7) scaleY(0.7); }
			  90% { -webkit-transform: scaleX(1) scaleY(1); }
			  100% { -webkit-transform: scaleX(0.7) scaleY(0.7); }
			}
			
		</style>
	 </defs>
	 
<g id="keyboard">
	<g id="rightArrow">
		<path fill="none" stroke="#000000" stroke-width="4" stroke-miterlimit="10" d="M304.077,173.885
			c1.532,15.754-0.376,31.869,0.5,48c0.569,10.491-5.442,40.887,5.502,45.887c5.919,2.705,17.877,1.063,24.498,1.725
			c8.77,0.876,18.05,0.389,26.975,0.389c9.567,0,19.144-0.125,28.563-0.5c8.155-0.325,19.947,2.523,27.488-0.5
			c11.371-4.56,4.475-34.65,4.475-44.5c0-16.919,3.75-33.346,2-50.5c-0.957-9.377-6.744-11.1-15.488-12.526
			c-9.462-1.543-20.906-0.961-30.4,0c-17.681,1.791-36.277,1.345-54.111,1.526c-4.976,0.05-12.493-0.682-16.639,1.861
			c-5.065,3.106-3.514,8.072-3.361,13.139"/>
		<path fill="none" stroke="#000000" stroke-width="4" stroke-miterlimit="10" d="M372.077,219.385
			c0.866,1.527,1.225,4.274,1.064,6.423c4.879-0.055,18.216-6.186,20.372-10.81c-6.323-2.758-13.703-5.503-19.461-8.938
			c-0.595,3.917-2.7,11.965,1.389,14.972c2.513,1.848,11.221-0.688,12.522-3.648c1.528-3.474-6.026-7.768-9.275-7.135
			c-4.794,0.933-2.338,9.118,4.313,8.062c1.686-5.704-17.696-2.435-21.925-2.425c-9.291,0.021-18.63-0.5-28-0.5"/>
	</g>
	<g id="leftArrow">
		<path fill="none" stroke="#000000" stroke-width="4" stroke-miterlimit="10" d="M20.577,176.385
			c-8.271-17.741,38.347-13,46.974-13c13.688,0,27.375,0,41.063,0c7.962,0,18.781-1.937,25.324,2.639
			c13.177,9.215,5.259,33.792,6.052,47.274c-0.682,0.178-1.144,0.497-1.826,0.674c-0.527,9.016,0.984,17.617,1.413,26.413
			c0.327,6.712,2.071,19.17-2.377,24.123c-6.405,7.13-19.756,5.377-28.635,5.377c-10.709,0-21.535-0.015-32.111-0.525
			c-10.903-0.527-21.958,0.025-32.877,0.025c-7.64,0-16.313,2.138-21.125-4.976c-4.593-6.79-3.875-17.664-3.875-25.634
			c0-9.63,0-19.261,0-28.891c0-11.863,0.103-23.383,2-34.5"/>
		<path fill="none" stroke="#000000" stroke-width="4" stroke-miterlimit="10" d="M68.077,212.885
			c0.167-2.023,0.85-3.938,0.923-5.923c-3.577,0.205-6.932,2.771-10.034,4.312c-3.144,1.563-8.119,2.537-10.46,4.626
			c2.531,2.48,6.996,2.7,10.194,4.374c3.029,1.586,5.636,4.167,8.79,5.047c-0.114-3.232,2.586-11.478-0.265-14.084
			c-3.3-3.018-9.592,2.312-12.56,3.735c-0.336,4.102,7.488,3.748,10.009,6.849c9.35-5.62-5.964-12.775-5.022-6.011
			c15.174,0.769,30.328,0.075,45.424,0.075"/>
	</g>
	<path fill="none" stroke="#6D6E71" stroke-width="3" stroke-miterlimit="10" d="M162.577,124.885
		c0,11.68-1.432,20.186,12.577,20.998c20.819,1.207,41.66-1.498,62.51-1.498c6.932,0,14.116,0.43,20.913-0.474
		c4.801-0.638,11.411,0.158,15.613-1.875c8.212-3.975,7.308-16.441,6.887-24.15c-1.063-19.476-1.553-40.162-1.5-59.5
		c0.012-4.16,0.245-8.505-0.611-12.5c-1.169-5.454-2.396-6.367-7.913-6.974c-11.046-1.216-23.144-0.526-34.5-0.526
		c-12.621,0-25.242,0-37.863,0c-9.361,0-21.958-2.341-30.127,2.376c-13.303,7.683-6.986,37.028-6.986,50.624
		c0,11.49-1.424,24.408,0.5,35.5"/>
	<path fill="none" stroke="#6D6E71" stroke-width="4" stroke-miterlimit="10" d="M220.577,116.885
		c0-11.468,1.434-24.278-0.423-35.424c4.971-0.252,13.534,1.977,9.299-4.952c-1.316-2.153-3.87-3.542-5.239-5.736
		c-1.343-2.154-1.738-4.582-3.124-6.449c-5.627,3.701-5.266,13.135-11.463,16.012c1.507-2.686,5.704-15.356,9.963-14.986
		c3.182,0.277,9.114,12.908,9.938,15.434c-5.694,0.381-13.421,1.371-18.898,0.5c2.522-4.267,6.109-11.15,10.948-9.287
		c1.721,0.662,5.065,4.015,3.535,5.813c-0.848,0.997-7.547,0.074-8.959,0c0.153-2.597,1.047-5.85,1.926-7.998
		c2.004,2.121,3.033,5.521,4.946,7.972c-1.048-0.069-2.1,0.598-2.948,0.602"/>
	<path fill="none" stroke="#6D6E71" stroke-width="4" stroke-miterlimit="10" d="M162.577,172.385c0.054,17.082-1.697,33.838-1,51
		c0.336,8.276,1,16.112,1,24.5c0,8.03-1.488,18.071,7.974,20.525c8.096,2.101,18.659,0.532,27.026,0.975
		c9.445,0.499,19.039,0,28.5,0c9.325,0,18.65-0.012,27.976,0c6.528,0.008,19.669,1.754,23.927-4.137
		c4.347-6.016,2.097-19.044,2.098-26.363c0.001-8.44,1.999-16.014,2-24.5c0.001-8.899-1.153-16.964-1.5-25.5
		c-0.27-6.635,2.893-19.841-3.863-23.637c-8.564-4.813-26.261-2.363-35.635-2.363c-11.76,0-23.519,0-35.278,0
		c-10.723,0-21.933-0.614-32.25,0.974c-4.077,0.627-8.257,0.909-10.849,4.663c-2.607,3.777-0.518,5.429-0.002,9.24
		c0.197,1.461,0.655,2.438-0.123,4.123"/>
	<path fill="none" stroke="#6D6E71" stroke-width="4" stroke-miterlimit="10" d="M220.077,188.385
		c-1.063,11.444,0.095,24.016-1.087,35.413c-2.924,1.349-6.105,0.988-9.337,1.162c-1.319,6.395,8.275,12.584,11.036,17.861
		c2.344-2.294,3.533-6.071,6.014-8.812c2.541-2.806,5.599-5.318,5.288-9.538c-5.688-2.294-14.597-0.502-19.826,2
		c-1.111,8.667,8.332,6.738,9.524,12.75c2.308-4.23,5.736-7.997,7.889-12.347c-3.249-1.138-15.938-2.524-13.9,3.91
		c1.651,5.212,10.81,4.348,9.313-2.313c-1.487-0.642-3.163-0.814-4.837-0.512c-0.024,0.723-0.197,1.531-0.076,2.273
		c-0.578-4.965,1.788-10.536,0-15.349"/>
</g>
</svg>
