<?xml version="1.0" encoding="utf-8"?>
<!-- Generator: Adobe Illustrator 16.0.0, SVG Export Plug-In . SVG Version: 6.00 Build 0)  -->
<!DOCTYPE svg PUBLIC "-//W3C//DTD SVG 1.1//EN" "http://www.w3.org/Graphics/SVG/1.1/DTD/svg11.dtd">
<svg version="1.1" id="Layer_1" xmlns="http://www.w3.org/2000/svg" xmlns:xlink="http://www.w3.org/1999/xlink" x="0px" y="0px"
	 width="612px" height="792px" viewBox="0 0 612 792" enable-background="new 0 0 612 792" xml:space="preserve">
	 	 	 	 	 	 	  	  	  <defs>
		<style>
			#linkedin{
				stroke-dasharray: 10000;
				stroke-dashoffset: 10000;
				-webkit-animation: draw 10s forwards;
				-moz-animation: draw 10s forwards;
				-o-animation: draw 10s forwards;
				-ms-animation: draw 10s forwards;
				animation: draw 10s forwards;
			}
			@-webkit-keyframes draw {
			  100% {
				stroke-dashoffset: 0;
			  }
			}
			@-moz-keyframes draw {
			  100% {
				stroke-dashoffset: 0;
			  }
			}
			@-o-keyframes draw {
			  100% {
				stroke-dashoffset: 0;
			  }
			}
			@-ms-keyframes draw {
			  100% {
				stroke-dashoffset: 0;
			  }
			}
			@keyframes draw {
			  100% {
				stroke-dashoffset: 0;
			  }
			}
		</style>
	 </defs>
<g id="linkedin">
	<path fill="none" stroke="#000000" stroke-width="4" stroke-miterlimit="10" d="M172.771,298.812C186,301,198,295,207,285
		c10-11,11-27,5-40c-10-19-34-25-53-17c-9,4-17,11-21,20c-5,11-2,22,2,32c4,7,12,10,19.403,14.825"/>
	<path fill="none" stroke="#000000" stroke-width="4" stroke-miterlimit="10" d="M140.667,329.333
		c10.968,0.038,22.074,1.226,33.333,0.667c8.974-0.446,23.712-3.511,32.667-0.682C215.156,332,212.734,349.871,212,358
		c-1.004,11.121-1.749,20.709-1.185,32c2.209,44.23-0.155,88.879-0.148,133.334c0.001,6.668,2.187,13.447,1.233,19.899
		c-5.552-0.263-9.907,1.759-15.233,2.101c-5.503,0.354-11.15,0-16.667,0c-10.446,0-23.371,1.916-33.368-0.633
		c-10.613-2.706-7.299-16.217-7.299-26.034c0-11.065,0.797-21.415,1.333-32C142.891,442.738,140,398.215,140,354
		c0-7.011-2.055-20.543,2-26"/>
	<path fill="none" stroke="#000000" stroke-width="4" stroke-miterlimit="10" d="M251.333,328.667
		c23.749,0,47.737-0.412,71.233,0.767c0.781,8.913,2.185,20.029,0.105,29.034c0.977-5.519,10.341-15.694,15.163-19.299
		c7.236-5.41,18.116-8.977,26.348-12.319c17.696-7.185,43.498-0.861,59.854,5.781c7.813,3.172,15.873,12.03,22.465,17.535
		c8.37,6.99,11.49,15.977,15.684,25.835c8.475,19.927,7.147,42.545,7.147,64.667c0,17.423-1.505,34.603-0.666,52
		c0.813,16.864,1.94,36.169,0.565,52.566c-10.566,1.563-23.003-0.288-33.899,0.249c-8.193,0.403-27.387,4.128-34.7-0.111
		c-6.395-3.706-3.966-22.784-3.966-30.037c0-10.92,0.155-22.113,0.666-32.667c0.529-10.937-1.091-21.445-2.148-32
		c-1.129-11.274,0.831-21.848,1.498-32.667c1.239-20.105-15.265-37.468-34.683-38.664c-21.859-1.346-38.095,17.812-40.815,37.998
		c-2.963,21.982,0.813,44.845,0.815,66.666c0.002,10,0,20,0,30c0,9.44-1.889,21.812,0.582,30.551
		c-24.046,1.401-47.372,0.586-71.814-0.651c-1.114-21.939-0.481-44.818,0.601-66.565c1.09-21.927-0.462-44.406,0.632-66
		c1.41-27.845-6.878-56.29,0-82"/>
	<path fill="none" stroke="#000000" stroke-width="4" stroke-miterlimit="10" d="M114.628,599.874C124,607,135,606,145,606
		c54,2,107,2,161,2c55,1,110,4,166-1c10-1,19-6,25-15c1-1,2-1,3-2c9-14,14-29,15-45c4-33,3-66,1-99c0-17-1-35-1-52c2-45,4-89,3-134
		c-1-17-2-34-8-50c-2-6-6-11-10-16c-9-9-22-14-35-15c-113,0-225-2-338,1c-11,3-20,10-28,18c-8,9-12,20-12,32
		c2,108,1,215,0.329,323.461"/>
	<path fill="none" stroke="#000000" stroke-width="4" stroke-miterlimit="10" d="M88,550.667
		C86.361,565.89,98.666,595.815,115.333,600"/>
	<path fill="none" stroke="#000000" stroke-width="4" stroke-miterlimit="10" d="M175.333,299.005
		c-5.438-1.253-11.734-0.511-16-4.667"/>
	<path fill="none" stroke="#000000" stroke-width="11" stroke-miterlimit="10" d="M142.667,249.334
		c-3.12,9.228-4.538,21.993,2.651,30c6.218,6.926,18.584,11.239,27.349,12.632c22.156,3.521,39.043-10.189,38-33.299
		c-1.046-23.166-28.099-32.394-48.667-27.185c-13.219,3.348-14.423,11.141-17.314,22.553c-2.284,9.017-2.046,20.522,6.148,27.131
		c3.929,3.169,9.818,2.98,14.48,4.187c5.37,1.39,10.295,3.158,16.017,3.947c13.442,1.854,20.383-3.051,23.482-15.302
		c3.067-12.128,4.874-18.052-4.313-27.981c-8.161-8.82-22.012-14.528-34.563-12.017c-5.824,1.166-16.682,8.244-18.638,14
		c-2.109,6.208,0.807,19.299,3.534,24.503c4.758,9.079,13.858,7.636,22.352,10.33c8.671,2.75,14.793,3.545,24.035,1.72
		c2.771-7.759,9.325-19.579,6.632-28.404c-2.137-7.003-12.59-14.185-19.333-16.649c-9.657-3.529-25.168-3.746-29.686,6.516
		c-3.23,7.337-4.651,22.58,1.982,28.502c4.526,4.042,12.703,4.818,18.37,6.313c6.871,1.811,11.694,4.217,18.701,1.72
		c4.002-5.183,7.557-21.173,4.781-27.219c-4.132-9-14.956-12.202-24-12.665c-12.524-0.64-17.035,8.327-16.665,20
		c0.391,12.3,9.302,16.38,19.998,17.965c12.3,1.823,19.647-2.867,20.016-15.965c0.324-11.545-12.172-20.584-23.349-18.667
		c-9.528,1.635-16.599,15.118-11.185,24.534c2.826,4.915,22.626,10.429,27.365,6.996c2.738-1.983,4.18-11.079,4.502-14.196
		c0.695-6.727-0.766-9.323-6.646-12.037c-10.217-4.717-22.188-4.323-21.368,10.034c0.565,9.896,11.344,19.616,21.183,12.486
		c9.141-6.624,1.646-22.638-9.185-21.186c-16.172,2.169-3.328,30.945,7.198,20.569c3.903-3.848,1.949-14.125-2.551-15.846
		c-7.669-2.933-9.884,7.209-6.531,12.529c1.024,0.299,2.753,0.313,3.786,0.016c0.713-2.664,2.03-5.771,0.765-7.995
		c-1.063,1.553-0.688,3.316,0,4.762"/>
</g>
</svg>
