<?xml version="1.0" encoding="utf-8"?>
<!-- Generator: Adobe Illustrator 16.0.0, SVG Export Plug-In . SVG Version: 6.00 Build 0)  -->
<!DOCTYPE svg PUBLIC "-//W3C//DTD SVG 1.1//EN" "http://www.w3.org/Graphics/SVG/1.1/DTD/svg11.dtd">
<svg version="1.1" id="Capa_1" xmlns="http://www.w3.org/2000/svg" xmlns:xlink="http://www.w3.org/1999/xlink" x="0px" y="0px"
	 width="471.023px" height="471.023px" viewBox="0 0 471.023 471.023" enable-background="new 0 0 471.023 471.023"
	 xml:space="preserve">
	  	  	  <defs>
		<style>
			#eyes{
				animation-name: blink;
				animation-duration: 5s;
				animation-iteration-count: infinite;
				transform-origin: 50%;
			}

			#glasses{
				stroke-dasharray: 1000;
				stroke-dashoffset: 1000;
				-webkit-animation: draw 10s forwards;
				-moz-animation: draw 10s forwards;
				-o-animation: draw 10s forwards;
				-ms-animation: draw 10s forwards;
				animation: draw 10s forwards;
			}
			#mouth{				
				animation-name: mouthBalance;
				animation-duration: 4s;
				animation-iteration-count: infinite;
				transform-origin: 50%;
			}
			#hair{				
				animation-name: hairBalance;
				animation-duration: 0.5s;
				animation-iteration-count: infinite;
				transform-origin: 50%;
			}
			@-webkit-keyframes draw {
			  100% {
				stroke-dashoffset: 0;
			  }
			}
			@-moz-keyframes draw {
			  100% {
				stroke-dashoffset: 0;
			  }
			}
			@-o-keyframes draw {
			  100% {
				stroke-dashoffset: 0;
			  }
			}
			@-ms-keyframes draw {
			  100% {
				stroke-dashoffset: 0;
			  }
			}
			@keyframes draw {
			  100% {
				stroke-dashoffset: 0;
			  }
			}
			@-webkit-keyframes blink { 
			  0% { -webkit-transform: scaleX(1) scaleY(1); } 
			  1% { -webkit-transform: scaleX(1) scaleY(0.1); } 
			  2% { -webkit-transform: scaleX(1) scaleY(1); } 
			  12% { -webkit-transform: scaleX(1) scaleY(1); } 
			  60% { -webkit-transform: scaleX(1) scaleY(1); } 
			  61% { -webkit-transform: scaleX(1) scaleY(0.1);} 
			  62% { -webkit-transform: scaleX(1) scaleY(1); } 
			  100% { -webkit-transform: scaleX(1) scaleY(1); }
			}
			@-webkit-keyframes mouthBalance { 
				0% { -webkit-transform: translateX(10px) rotate(0deg); }
				50% { -webkit-transform: translateX(30px) rotate(-30deg); }
				100% { -webkit-transform:  translateX(10px) rotate(0deg); }

			}
			@-webkit-keyframes hairBalance { 
				0% { -webkit-transform: rotateX(0deg); }
				50% { -webkit-transform: rotateX(-30deg); }
				100% { -webkit-transform:  rotateX(0deg); }

			}
			@keyframes infinite-spinning {
			  
			}
		</style>
	 </defs>
<g>
	<g>
		<path d="M297.662,349.34c-5.374-7.683-9.313-20.277-1.01-69.361c14.188-14.058,25.928-27.078,28.646-30.127l0.733-0.819
			l2.368-12.978c1.669-3.594,3.627-7.976,5.729-12.989c-0.212-7.704-0.325-15.374,1.062-23.045c0.606-3.361,3.601-4.182,6.108-3.273
			c-0.063-2.367,0.12-4.735,0.658-7.073c1.183-5.138,3.765-9.628,6.503-14.073c1.303-2.113,2.53-4.243,3.587-6.44
			c0.67-2.775,1.304-5.587,1.898-8.424c-1.188-2.12-2.138-4.391-2.757-6.725c-0.698-2.632,0.85-5.423,3.492-6.15
			c0.347-0.095,0.694-0.146,1.042-0.162c-0.052-5.239-0.476-10.483-0.96-15.684c-0.427-4.583-1.242-9.394-1.086-14
			c0.167-4.934,1.531-9.655,1.923-14.545c0.721-8.97-3.477-18.117-7.373-25.99c-3.249-6.565-7.008-13.115-7.314-20.629
			c-1.186-0.458-2.36-0.938-3.563-1.348c-2.115-0.721-3.617-2.553-3.671-4.706c-1.152-1.246-1.627-3.22-1.154-4.777
			c0.244-0.811,0.287-1.404-0.396-2.547c-0.161-0.269-0.338-0.521-0.514-0.775c-0.914,0.297-1.929,0.353-2.933,0.139
			c-3.175-0.675-6.198-1.846-9.333-2.667c-2.267-0.593-3.34-2.248-3.512-4.032c-2.113-0.618-3.219-2.526-3.317-4.5
			c-2.414-0.171-4.658-0.854-6.854-1.895c-0.617-0.152-1.231-0.319-1.84-0.52c-1.815-0.598-3.425-1.348-4.888-2.281
			c-0.93,0.038-1.89-0.165-2.783-0.61c-0.32-0.16-0.648-0.305-0.975-0.458c-0.272-0.094-0.553-0.171-0.834-0.236
			c-2.287-0.222-4.158-1.867-4.551-4.112c-0.231-0.112-0.447-0.241-0.648-0.386c-11.354,0.16-22.317-1.502-32.326-7.476
			c-0.865-0.517-1.473-1.166-1.859-1.879c-2.034-0.499-4.072-0.994-6.12-1.456c-4.446-1.002-9.147-2.192-13.742-2.016
			c-1.463,0.056-2.896,0.228-4.315,0.466c-0.278,0.502-0.679,0.988-1.236,1.436c-5.797,4.656-12.979,6.5-20.032,8.423
			c-4.574,1.247-14.829,2.717-16.683,8.038c-0.99,2.842-4.522,4.932-7.345,2.988c-3.803-2.619-5.837-0.211-8.625,2.717
			c-2.225,2.336-4.562,4.706-7.225,6.583c-0.708,0.499-1.438,0.963-2.196,1.382c-1.521,0.842-3.213,1.484-4.983,2.043
			c-7,8.506-15.416,16.785-19.264,27.097c-4.025,10.788-5.67,22.313-11.533,32.384c-1.771,3.042-5.151,2.917-7.326,1.271
			c-1.336,2.646-1.97,5.612-1.281,9.543c1.346,7.68,4.096,15.016,4.565,22.831c0.594,0.585,1.036,1.402,1.213,2.503
			c2.172,13.506,3.801,27.519,4.469,41.184c0.146,2.971-0.152,6.7,1.55,9.308c1.233,1.89,3.019,3.261,4.683,4.755
			c3.286,2.95,5.941,6.279,6.631,10.754c2.823,11.428,2.576,24.303,5.645,35.86c0.34,0.433,0.689,0.859,1.069,1.269
			c1.239,1.33,1.564,2.852,1.295,4.242c0.25,0.252,0.497,0.512,0.749,0.758l0.525,2.882l0.741,0.819
			c2.717,3.051,14.459,16.078,28.659,30.138c7.051,41.762,5.252,57.12,1.116,65.634C126.906,357.594,33.074,385.396,5.59,446.446
			c0.604,1.391,1.255,2.764,1.965,4.117c4.177-2.276,8.655-4.01,12.452-2.704c3.975,1.365,6.51,3.971,8.955,7.3
			c2.507,3.413,4.825,6.597,9.554,4.867c6.564-2.401,13.104-5.983,19.945-2.823c2.529,1.168,7.134,3.092,9.971,3.001
			c3.357-0.106,6.648-2.556,9.771-3.626c8.927-3.06,17.757-1.762,26.578,0.999c6.926,2.167,13.905,4.21,21.045,5.453h19.559
			c4.327-1.157,8.4-3.114,12.861-5.502c9-4.816,16.991-4.061,26.725-1.928c2.819,0.617,5.482,0.92,8.101,0.992
			c6.012-0.986,12.062-1.86,18.132-2.419c5.184-1.12,10.408-2.192,15.693-2.556c11.604-0.795,23.102,4.836,34.085-0.386
			c9.89-4.701,18.416-8.516,29.341-5.411c6.7,1.902,12.595,3.685,19.596,2.101c5.765-1.304,11.377-3.245,17.257-3.999
			c12.368-1.584,24.374,3.896,36.808,2.512c6.764-0.753,13.499-4.801,20.362-4.316c5.889,0.415,9.736,2.712,13.234,7.372
			c3.391,4.518,11.959,3.837,17.085,4.11c5.827,0.313,11.516,0.834,17.27,1.803c4.455,0.749,9.524,1.774,14.597,2.183
			c4.995-0.826,9.631-2.822,12.627-7.06c1.155-1.636,2.102-3.363,2.884-5.159C428.294,390.645,352.401,362.904,297.662,349.34z
			 M188.275,272.313c-1.311-1.304-2.607-2.611-3.896-3.924c-7.867-7.981-15.356-15.971-21.596-22.947l-7.835-42.875
			c-0.415-2.473-0.767-4.869-1.146-7.288c0.291-40.93,5.975-91.211,32.118-91.794l4.33,3.3c1.052-1.45,2.832-2.298,5.091-1.589
			c14.527,4.56,28.5,10.964,43.253,14.7c-0.283-1.055-0.527-2.126-0.736-3.216c-0.741-3.892,2.256-6.896,6.15-6.15
			c9.242,1.77,17.163,7.011,25.78,10.373c-0.356-0.674-0.788-1.342-1.312-2.016c-3.459-4.451,0.713-10.418,6.059-7.853
			c4.764,2.286,9.799,3.844,14.906,5.154l1.865-5.832l-12.043-30.42l53.148,55.813c0.337,19.432-1.61,41.701-5.858,66.772
			l-7.851,42.921c-6.24,6.972-13.723,14.966-21.59,22.947c-1.285,1.313-2.588,2.62-3.896,3.924
			c-1.315,1.316-2.647,2.621-3.981,3.929c-19.739,19.34-40.125,36.628-48.489,36.628c-8.369,0-28.749-17.288-48.491-36.628
			C190.92,274.934,189.594,273.631,188.275,272.313z M240.748,424.438c-39.134,0-70.983-18.05-70.983-40.234
			c0-7.183,3.565-14.313,10.307-20.622l0.894-0.842c1.659-1.459,3.486-2.869,5.458-4.204l1.176-1.187
			c2.817-3.553,5.677-7.146,7.574-13.524c2.787-9.354,3.488-24.777-0.946-54.745c17.418,16.406,36.332,31.654,46.504,31.654
			c10.17,0,29.086-15.248,46.502-31.654c-4.945,33.365-3.486,48.697,0.164,57.835c1.867,4.669,4.313,7.741,6.761,10.815l0.874,0.819
			c2.039,1.378,3.919,2.821,5.574,4.315l0.789,0.734c6.733,6.301,10.304,13.438,10.304,20.623
			C311.724,406.391,279.885,424.438,240.748,424.438z"/>
	</g>
</g>
<g id="glasses">
	<path fill="#FFFFFF" stroke="#000000" stroke-width="4" stroke-miterlimit="10" d="M202.678,158.011
		c-15.694,0-28.417,12.685-28.417,28.333c0,15.648,12.723,28.333,28.417,28.333c15.694,0,28.417-12.685,28.417-28.333
		C231.095,170.696,218.373,158.011,202.678,158.011z"/>
	<path fill="#FFFFFF" stroke="#000000" stroke-width="4" stroke-miterlimit="10" d="M277.484,158.345c-15.465,0-28,12.536-28,28
		c0,15.464,12.535,28,28,28c15.464,0,28-12.536,28-28C305.484,170.881,292.948,158.345,277.484,158.345z"/>
	<path fill="none" stroke="#000000" stroke-width="4" stroke-miterlimit="10" d="M231.095,186.344c0-2.763,3.69-4.999,8.25-4.999"/>
	<path fill="none" stroke="#000000" stroke-width="4" stroke-miterlimit="10" d="M249.484,186.345c0-2.763-4.535-5-10.142-5"/>
	<path fill="none" stroke="#000000" stroke-width="4" stroke-miterlimit="10" d="M174.262,186.344c0-4.966-8.926-8.984-19.957-8.984
		"/>
	<path fill="none" stroke="#000000" stroke-width="4" stroke-miterlimit="10" d="M305.484,186.345
		c0-7.479,11.253-13.531,25.158-13.531"/>
</g>
<path id="mouth" fill="none" stroke="#000000" stroke-width="4" stroke-miterlimit="10" d="M202.679,268.679
	c0,7.738,18.667,14,41.735,14"/>
<g id="eyes">
	<ellipse fill="#231F20" stroke="#000000" stroke-width="4" stroke-miterlimit="10" cx="277.484" cy="198.012" rx="5.833" ry="5"/>
	<ellipse fill="#231F20" stroke="#000000" stroke-width="4" stroke-miterlimit="10" cx="202.679" cy="198.012" rx="5.833" ry="5"/>
</g>
<g id="hair">
	<path fill="none" stroke="#000000" stroke-miterlimit="10" d="M133.512,63.012c3.254,2.346,6.347,5.008,9.5,7.5"/>
	<path fill="none" stroke="#000000" stroke-miterlimit="10" d="M135.273,88.943c-0.071,0.433-0.194,0.855-0.365,1.255
		c0.617,0.991,1.163,2.02,1.564,3.097C136.12,91.964,135.853,90.353,135.273,88.943z"/>
	<path fill="none" stroke="#000000" stroke-miterlimit="10" d="M144.012,68.012c2.53-4.927,4.636-10.053,6.703-15.187"/>
	<path fill="none" stroke="#000000" stroke-miterlimit="10" d="M353.012,110.012c0.086,7.175,1.915,15.777,5.5,22"/>
	<path fill="none" stroke="#000000" stroke-miterlimit="10" d="M358.512,141.512c-1.095-0.109-2.58-1.818-3.5-3.5"/>
	<path fill="none" stroke="#000000" stroke-miterlimit="10" d="M357.012,119.512c-2.172,2.22-1.854,7.067-2.5,10"/>
	<path fill="none" stroke="#000000" stroke-miterlimit="10" d="M357.012,110.012c-0.167,0-0.333,0-0.5,0"/>
	<path fill="none" stroke="#000000" stroke-miterlimit="10" d="M344.012,73.012c2.335,1.735,4.813,3.268,7.347,4.693"/>
	<path fill="none" stroke="#000000" stroke-miterlimit="10" d="M353.512,87.512c1.138,1.741,2.113,3.646,3,5.5"/>
	<path fill="none" stroke="#000000" stroke-miterlimit="10" d="M354.512,100.012c-0.075,3.14,1.473,5.282,2.5,8"/>
	<path fill="none" stroke="#000000" stroke-miterlimit="10" d="M174.012,44.512c0.061-2.746,1.406-4.794,3-7"/>
	<path fill="none" stroke="#000000" stroke-miterlimit="10" d="M225.012,18.512c4.016-0.797,7.957-0.995,12-1.5"/>
	<path fill="none" stroke="#000000" stroke-miterlimit="10" d="M300.512,27.012c0.896,1.224,2.4,2.147,4,2.5"/>
	<path fill="none" stroke="#000000" stroke-miterlimit="10" d="M314.012,41.012c-3.396,1.854-6.034,4.022-9,6.5"/>
	<path fill="none" stroke="#000000" stroke-miterlimit="10" d="M270.012,23.512c-1.252-1.676-2.441-3.398-4-4.5"/>
	<path fill="none" stroke="#000000" stroke-miterlimit="10" d="M279.512,20.512c0-1.667,0-3.333,0-5"/>
	<path fill="none" stroke="#000000" stroke-miterlimit="10" d="M270.512,16.012c-0.75,1.369-1.513,3.459-2.5,5"/>
	<path fill="none" stroke="#000000" stroke-miterlimit="10" d="M250.012,14.012c0.878-1.827,2.584-3.248,4.5-4"/>
	<path fill="none" stroke="#000000" stroke-miterlimit="10" d="M235.512,10.512c-0.898-0.628-1.64-1.537-2-2.5"/>
	<path fill="none" stroke="#000000" stroke-miterlimit="10" d="M226.512,13.012c-1.221,0.152-2.392-0.014-3.5-0.5"/>
	<path fill="none" stroke="#000000" stroke-miterlimit="10" d="M218.012,17.512c-2.993-0.528-5.776-2.544-8.5-4"/>
	<path fill="none" stroke="#000000" stroke-miterlimit="10" d="M186.512,30.512c-0.43-0.434-0.763-0.934-1-1.5"/>
	<path fill="none" stroke="#000000" stroke-miterlimit="10" d="M157.012,39.512c3.678,1.698,7.464,3.16,11.5,4"/>
	<path fill="none" stroke="#000000" stroke-miterlimit="10" d="M129.512,98.012c1.515,0.797,2.715,1.998,3.5,3.5"/>
</g>
</svg>
