<?xml version="1.0" encoding="iso-8859-1"?>
<!-- Generator: Adobe Illustrator 18.0.0, SVG Export Plug-In . SVG Version: 6.00 Build 0)  -->
<!DOCTYPE svg PUBLIC "-//W3C//DTD SVG 1.1//EN" "http://www.w3.org/Graphics/SVG/1.1/DTD/svg11.dtd">
<svg version="1.1" id="Capa_1" xmlns="http://www.w3.org/2000/svg" xmlns:xlink="http://www.w3.org/1999/xlink" x="0px" y="0px"
	 viewBox="0 0 330.829 330.829" style="enable-background:new 0 0 330.829 330.829;" xml:space="preserve">
<g>
	<path style="fill:#211915;" d="M329.134,260.356c-1.857-2.77-4.972-4.431-8.306-4.431H195.724v-11.751h120.153
		c5.522,0,10-4.478,10-10s-4.478-10-10-10H195.724v-3.803h93.039c4.194,0,7.943-2.618,9.388-6.556
		c1.445-3.938,0.278-8.359-2.921-11.072l-4.686-3.973c-45.15-38.279-77.921-88.471-94.82-145.185V37.903h16.153
		c5.522,0,10-4.478,10-10s-4.478-10-10-10h-16.153V16.95c0-5.522-4.478-10-10-10s-10,4.478-10,10v14.668
		C96.625,59.73,43.684,134.533,43.684,218.692v9.482c0,5.522,4.478,10,10,10h122.04v17.751H10.001c-4.552,0-8.529,3.074-9.677,7.48
		s0.824,9.029,4.798,11.25l85.806,47.954c1.491,0.833,3.171,1.271,4.879,1.271H249.32c35.562,0,67.262-21.259,80.761-54.158
		C331.345,266.636,330.991,263.124,329.134,260.356z M262.487,200.371h-66.763v-91.775
		C212.353,142.813,234.887,173.843,262.487,200.371z M175.724,52.994v165.18H63.685C63.895,145.105,108.478,79.956,175.724,52.994z
		 M249.32,303.879H98.411l-50.019-27.954h255.552C291.499,293.276,271.373,303.879,249.32,303.879z"/>
</g>
<g>
</g>
<g>
</g>
<g>
</g>
<g>
</g>
<g>
</g>
<g>
</g>
<g>
</g>
<g>
</g>
<g>
</g>
<g>
</g>
<g>
</g>
<g>
</g>
<g>
</g>
<g>
</g>
<g>
</g>
</svg>
