<?xml version="1.0" encoding="utf-8"?>
<!-- Generator: Adobe Illustrator 16.0.0, SVG Export Plug-In . SVG Version: 6.00 Build 0)  -->
<!DOCTYPE svg PUBLIC "-//W3C//DTD SVG 1.1//EN" "http://www.w3.org/Graphics/SVG/1.1/DTD/svg11.dtd">
<svg version="1.1" id="Layer_1" xmlns="http://www.w3.org/2000/svg" xmlns:xlink="http://www.w3.org/1999/xlink" x="0px" y="0px"
	 width="612px" height="792px" viewBox="0 0 612 792" enable-background="new 0 0 612 792" xml:space="preserve">
	 <defs>
		<style>
			.xpto{
				stroke-dasharray: 100;
				stroke-dashoffset: 100;
				-webkit-animation: draw 10s forwards;
				-moz-animation: draw 10s forwards;
				-o-animation: draw 10s forwards;
				-ms-animation: draw 10s forwards;
				animation: draw 10s forwards;
			}
			@-webkit-keyframes draw {
			  100% {
				stroke-dashoffset: 0;
			  }
			}
			@-moz-keyframes draw {
			  100% {
				stroke-dashoffset: 0;
			  }
			}
			@-o-keyframes draw {
			  100% {
				stroke-dashoffset: 0;
			  }
			}
			@-ms-keyframes draw {
			  100% {
				stroke-dashoffset: 0;
			  }
			}
			@keyframes draw {
			  100% {
				stroke-dashoffset: 0;
			  }
			}
		</style>
	 </defs>
<path class="xpto" fill="none" stroke="#000000" stroke-miterlimit="10" d="M163.872,258.333c-11.712-7.8-46.977-13.517-55.891-0.149
	c-14.929,22.391,8.187,64.343,31.787,69.211c19.445,4.01,51.653-11.051,45.436-35.348c-5.088-19.886-31.808-33.566-50.819-32.433"/>
<path fill="none" stroke="#000000" stroke-miterlimit="10" d="M370.282,182.692c-12.051,11.764-26.098,21.105-39.146,31.671
	c-11.641,9.426-20.518,23.093-32.421,31.739c-9.619,6.987-15.971,5.984-27.19,3.57c-15.544-3.344-29.874-3.664-45.729-4.359
	c-10.458-0.458-36.678-6.907-43.781,4.063c-6.23,9.652,0.419,39.196,4.797,48.44c8.15,17.209,24.818,28.291,42.855,33.388
	c24.552,6.938,45.831,2.52,50.017-25.881c0.94-6.378-2.206-16.465,0.278-22.22c1.857-4.303,7.389-3.518,8.044-5.377
	c2.245-6.37,1.291-14.185-3.916-19.44c-0.115-0.116-0.231-0.232-0.347-0.346"/>
<path fill="none" stroke="#000000" stroke-miterlimit="10" d="M115.154,250.641c-27.903-30.823-51.297-66.264-70.513-102.564"/>
</svg>
