<?xml version="1.0" encoding="utf-8"?>
<!-- Generator: Adobe Illustrator 16.0.0, SVG Export Plug-In . SVG Version: 6.00 Build 0)  -->
<!DOCTYPE svg PUBLIC "-//W3C//DTD SVG 1.1//EN" "http://www.w3.org/Graphics/SVG/1.1/DTD/svg11.dtd">
<svg version="1.1" id="Layer_1" xmlns="http://www.w3.org/2000/svg" xmlns:xlink="http://www.w3.org/1999/xlink" x="0px" y="0px"
	 width="3564px" height="792px" viewBox="0 0 3564 792" enable-background="new 0 0 3564 792" xml:space="preserve">
	 
	  
	   	  <defs>
		<style>
			#wave{				
				animation-name: waveBalance;
				animation-duration: 5s;
				animation-iteration-count: infinite;
				transform-origin: 50%;
				stroke-dasharray: 1000;
				stroke-dashoffset: 1000;
			}
			
			#boat{				
				animation-name: boatSinking;
				animation-duration: 200s;
				animation-iteration-count: infinite;
				transform-origin: 50%;
				stroke-dasharray: 1000;
				stroke-dashoffset: 1000;
			}
			
			#point1{				
				animation-name: pointBalance;
				animation-duration: 1s;
				animation-iteration-count: infinite;
				transform-origin: 50%;
				stroke-dasharray: 1000;
				stroke-dashoffset: 1000;
			}
			
			#point2{				
				animation-name: pointBalance2;
				animation-duration: 2s;
				animation-iteration-count: infinite;
				transform-origin: 50%;
				stroke-dasharray: 1000;
				stroke-dashoffset: 1000;
			}
			
		
			@-webkit-keyframes draw {
			  100% {
				stroke-dashoffset: 0;
			  }
			}
			@-moz-keyframes draw {
			  100% {
				stroke-dashoffset: 0;
			  }
			}
			@-o-keyframes draw {
			  100% {
				stroke-dashoffset: 0;
			  }
			}
			@-ms-keyframes draw {
			  100% {
				stroke-dashoffset: 0;
			  }
			}
			@keyframes draw {
			  100% {
				stroke-dashoffset: 0;
			  }
			}


			@-webkit-keyframes waveBalance { 
				0% { -webkit-transform: translateX(10px) translateY(10px); } 
			    10% { -webkit-transform: translateX(20px) translateY(20px);} 
			    20% { -webkit-transform:  translateX(30px) translateY(10px);} 
			    30% { -webkit-transform: translateX(40px) translateY(20px);} 
			    40% { -webkit-transform: translateX(50px) translateY(10px);} 
			    50% { -webkit-transform: translateX(60px) translateY(20px);} 
			    60% { -webkit-transform: translateX(50px) translateY(10px);} 
			    70% { -webkit-transform: translateX(40px) translateY(20px);}
				80% { -webkit-transform: translateX(30px) translateY(10px);}
				90% { -webkit-transform: translateX(20px) translateY(20px);}
				100% { -webkit-transform: translateX(10px) translateY(10px);}
			}
			
			@-webkit-keyframes boatSinking { 
				0% { -webkit-transform: translateX(100px) translateY(10px) rotate(0deg); } 
				2% { -webkit-transform: translateX(200px) translateY(20px) rotate(-15deg); } 
			    4% { -webkit-transform: translateX(300px) translateY(30px) rotate(0deg);} 
			    6% { -webkit-transform:  translateX(400px) translateY(40px) rotate(15deg);} 
			    8% { -webkit-transform: translateX(500px) translateY(30px) rotate(0deg);} 
			    10% { -webkit-transform: translateX(600px) translateY(20px) rotate(-15deg);} 
			    12% { -webkit-transform: translateX(700px) translateY(10px) rotate(0deg);} 
			    14% { -webkit-transform: translateX(800px) translateY(20px) rotate(15deg);} 
			    16% { -webkit-transform: translateX(900px) translateY(30px) rotate(0deg);}
				18% { -webkit-transform: translateX(1000px) translateY(40px) rotate(-15deg);}
				20% { -webkit-transform: translateX(1100px) translateY(30px) rotate(0deg);}
				22% { -webkit-transform: translateX(1200px) translateY(20px) rotate(15deg);}
				24% { -webkit-transform: translateX(1300px) translateY(10px) rotate(0deg); } 
			    26% { -webkit-transform: translateX(1400px) translateY(20px) rotate(-15deg);} 
			    28% { -webkit-transform:  translateX(1500px) translateY(30px) rotate(0deg);} 
			    30% { -webkit-transform: translateX(1600px) translateY(40px) rotate(15deg);} 
			    32% { -webkit-transform: translateX(1700px) translateY(30px) rotate(0deg);} 
			    34% { -webkit-transform: translateX(1800px) translateY(20px) rotate(-15deg);} 
			    36% { -webkit-transform: translateX(1900px) translateY(10px) rotate(0deg);} 
			    38% { -webkit-transform: translateX(2000px) translateY(20px) rotate(15deg);}
				40% { -webkit-transform: translateX(2100px) translateY(30px) rotate(0deg);}
				42% { -webkit-transform: translateX(2200px) translateY(40px) rotate(-15deg);}
				44% { -webkit-transform: translateX(2300px) translateY(30px) rotate(0deg); } 
			    46% { -webkit-transform: translateX(2400px) translateY(20px) rotate(15deg);} 
			    48% { -webkit-transform:  translateX(2500px) translateY(10px) rotate(0deg);} 
			    50% { -webkit-transform: translateX(2600px) translateY(20px) rotate(-15deg);} 
			    52% { -webkit-transform: translateX(2500px) translateY(30px) rotate(0deg);} 
			    54% { -webkit-transform: translateX(2400px) translateY(40px) rotate(15deg);} 
			    56% { -webkit-transform: translateX(2300px) translateY(30px) rotate(0deg);} 
			    58% { -webkit-transform: translateX(2200px) translateY(20px) rotate(-15deg);}
				60% { -webkit-transform: translateX(2100px) translateY(10px) rotate(0deg);}
				62% { -webkit-transform: translateX(2000px) translateY(20px) rotate(15deg);}
				64% { -webkit-transform: translateX(1900px) translateY(30px) rotate(0deg);}
				66% { -webkit-transform: translateX(1800px) translateY(40px) rotate(-15deg); } 
			    68% { -webkit-transform: translateX(1700px) translateY(30px) rotate(0deg);} 
			    70% { -webkit-transform:  translateX(1600px) translateY(20px) rotate(15deg);} 
			    72% { -webkit-transform: translateX(1500px) translateY(10px) rotate(0deg);} 
			    74% { -webkit-transform: translateX(1400px) translateY(20px) rotate(-15deg);} 
			    76% { -webkit-transform: translateX(1300px) translateY(30px) rotate(0deg);} 
			    78% { -webkit-transform: translateX(1200px) translateY(40px) rotate(15deg);} 
			    80% { -webkit-transform: translateX(1100px) translateY(30px) rotate(0deg);}
				82% { -webkit-transform: translateX(1000px) translateY(20px) rotate(-15deg);}
				84% { -webkit-transform: translateX(900px) translateY(10px) rotate(0deg);}
			    86% { -webkit-transform: translateX(800px) translateY(20px) rotate(15deg);} 
			    88% { -webkit-transform:  translateX(700px) translateY(30px) rotate(0deg);} 
			    90% { -webkit-transform: translateX(600px) translateY(40px) rotate(-15deg);} 
			    92% { -webkit-transform: translateX(500px) translateY(30px) rotate(0deg);} 
			    94% { -webkit-transform: translateX(400px) translateY(20px) rotate(15deg);} 
			    96% { -webkit-transform: translateX(300px) translateY(10px) rotate(0deg);} 
			    98% { -webkit-transform: translateX(200px) translateY(20px) rotate(-15deg);}
				100% { -webkit-transform: translateX(100px) translateY(30px) rotate(0deg);}
			}
			
			@-webkit-keyframes pointBalance { 
				0% { -webkit-transform:  translateY(10px); } 
				50% { -webkit-transform: translateY(50px);}
				100% { -webkit-transform: translateY(10px);}
			}

			@-webkit-keyframes pointBalance2 { 
				0% { -webkit-transform:  translateY(-10px); } 
				50% { -webkit-transform: translateY(40px);}
				100% { -webkit-transform: translateY(-10px);}
			}
			
			
			
		</style>
	 </defs>
	 
	 
<g id="wave_1_">
	<g id="wave">
		<path d="M-48.332,799.795c45.901,10.885,92.415-26.452,126.612-51.791c47.375-35.104,94.075-78.792,151.305-97.028
			c26.264-8.369,53.397-6.713,76.985,8.053c6.533,4.09,12.281,9.285,17.737,14.688c3.977,3.936,17.104,15.352,6.066,15.986
			c-11.291,0.648-24.839,3.377-33.748,10.918c-12.842,10.87-12.021,26.289,0.335,37.193c21.075,18.599,56.174,10.592,79.369,1.981
			c19.039-7.065,37.261-15.3,55.263-24.706c17.623-9.208,34.905-18.373,54.902-20.896c23.19-2.927,45.774,5.161,67.666,11.475
			c22.368,6.449,45.17,11.081,68.449,12.191c45.611,2.176,87.071-17.942,128.687-33.643c21.781-8.217,43.766-15.659,66.68-19.989
			c12.838-2.426,25.793-2.864,38.781-1.884c7.333,0.554,14.273,2.376,21.267,4.441c2.515,0.743,18.119,10.301,20.599,10.38
			c-15.378-0.496-44.829,3.914-40.456,25.674c4.721,23.496,41.46,27.125,59.617,26.23c20.769-1.024,41.759-7.719,61.703-13.144
			c26.622-7.241,52.936-13.657,80.513-16.088c46.152-4.068,89.601-22.604,133.255-36.779
			c43.927-14.264,89.388-23.284,134.912-11.078c12.297,3.298,1.795,4.637-3.849,7.154c-5.521,2.464-11.501,4.96-16.163,8.926
			c-4.123,3.509-7.727,7.601-5.699,13.238c5.013,13.944,34.966,15.563,46.493,16.884c34.582,3.963,67.396-5.713,101.802-7.095
			c48.847-1.962,95.229,1.297,142.74-12.828c41.879-12.45,82.253-29.354,124.567-40.449c47.334-12.411,96.668-14.888,141.942,6.033
			c9.299,4.297,17.88,9.98,26.211,15.885c4.98,3.53-14.229,10.125-16.619,11.263c-15.215,7.233-29.215,16.835-38.671,30.967
			c-0.385,0.574-0.105,1.373,0.448,1.71c32.621,19.856,69.386,3.354,101.412-9.591c20.229-8.177,40.591-16.271,62.534-18.104
			c22.43-1.872,45.835,2.711,67.938,5.853c36.62,5.204,68.149,0.902,101.458-15.639c20.313-10.088,38.903-24.008,58.439-35.532
			c23.096-13.624,47.097-25.644,72.197-35.111c50.295-18.973,104.326-21.241,152.176,5.566c5.024,2.815,8.804,6.144,14.374,7.625
			c-2.749-0.73-5.57-1.188-8.371-1.668c-5.604-0.959-11.296-1.338-16.966-1.604c-14.786-0.695-29.802,1.161-43.786,6.026
			c-22.813,7.936-35.585,29.988-27.6,53.491c7.435,21.877,38.837,16.509,55.718,13.313c40.547-7.679,78.388-17.279,120.291-16.529
			c52.088,0.934,103.569,10.784,155.774,10c91.354-1.373,170.249-64.154,262.714-62.837c12.604,0.179,25.046,2.261,37.259,5.231
			c5.468,1.33,10.771,3.234,16.056,5.134c9.373,3.367,5.778,1.81-0.037,2.946c-12.325,2.409-31.877,7.896-36.873,21.429
			c-4.17,11.294,1.477,21.517,11.291,28c13.346,8.815,26.928,8.258,41.846,3.786c18.055-5.413,34.222-16.214,51.584-23.367
			c25.93-10.683,55.455-1.985,81.895,2.228c20.858,3.323,42.728,2.619,63.564-0.595c29.359-4.526,54.55-7.23,83.715-0.344
			c111.195,26.26,195.074,116.348,297.396,162.292c1.457,0.655,2.729-1.499,1.262-2.158
			c-107.008-48.049-194.508-143.358-312.745-165.681c-30.263-5.714-58.922,3.354-89.043,5.353
			c-35.555,2.356-69.218-9.142-104.53-8.35c-21.855,0.491-41.729,14.334-60.943,23.178c-15.623,7.191-32.727,12.047-48.993,3.974
			c-18.64-9.25-18.713-27.699-2.658-38.838c9.771-6.776,22.728-8.836,34.283-9.307c1.135-0.046,1.846-1.792,0.631-2.329
			c-66.259-29.332-134.474-8.506-199.194,14.491c-34.038,12.095-67.986,24.843-103.742,30.879
			c-41.367,6.984-85.221,0.068-126.593-3.906c-38.397-3.689-76.573-5.729-114.873,0.067c-26.211,3.967-51.577,13.046-78.003,15.444
			c-14.81,1.344-30.313-1.446-35.66-17.178c-5.798-17.063,3.508-34.179,17.771-43.122c21.828-13.688,55.279-12.792,79.333-6.393
			c1.441,0.384,2.072-1.484,0.963-2.284c-51.828-37.395-111.443-37.236-169.944-16.377c-28.981,10.335-56.214,25.372-82.524,41.15
			c-30.4,18.229-58.428,38.797-93.967,45.88c-25.438,5.069-51.48-0.528-76.732-3.908c-29.698-3.975-56.447-3.668-84.919,6.004
			c-28.556,9.699-55.522,24.897-85.918,28.205c-7.292,0.794-14.609-0.042-21.733-1.612c-15.664-3.455-13.341-10.764-3.449-19.748
			c13.018-11.821,30.846-18.834,46.891-25.31c1.056-0.426,1.195-1.6,0.299-2.284c-103.425-78.973-217.524-3.069-325.279,21.143
			c-33.836,7.603-69.18,5.456-103.586,5.669c-27.859,0.173-54.221,6.325-81.699,8.23c-19.748,1.371-40.392-0.474-59.452-5.795
			c-6.466-1.805-22.195-6.854-17.138-16.372c5.555-10.447,25.021-15.188,34.855-18.591c1.193-0.413,1.183-1.993,0-2.41
			c-97.129-34.29-185.572,34.42-280.333,43.955c-49.843,5.017-97.229,27.013-147.075,29.47
			c-17.917,0.885-40.958-4.306-50.837-20.827c-14.049-23.494,29.633-26.538,41.912-26.143c1.313,0.042,1.612-1.673,0.631-2.329
			c-56.571-37.864-123.193-6.948-179.981,14.07c-34.041,12.6-65.063,24.514-102.037,23.778
			c-37.933-0.754-72.151-16.522-108.968-22.734c-21.355-3.604-41.342,0.238-60.886,8.95c-29.45,13.126-56.559,29.234-87.437,39.441
			c-22.253,7.356-57.229,10.482-72.664-11.676c-19.342-27.768,31.343-37.205,47.34-37.502c0.865-0.016,1.667-1.082,1.079-1.881
			c-20.412-27.746-47.501-47.648-83.084-46.664c-36.691,1.016-71.272,22.797-100.624,42.73
			c-35.494,24.105-68.21,52.03-103.488,76.442C25.42,782.162-11.37,805.987-47.666,797.381
			C-49.235,797.013-49.9,799.423-48.332,799.795L-48.332,799.795z"/>
	</g>
</g>
<path id="point1" fill="#010101" d="M347.092,313.496c-61.987,0-112.26,50.513-112.26,112.771
	c0,72.427,80.843,162.82,93.551,176.646c5.25,5.723,9.656,11.304,18.709,11.304s13.451-5.581,18.713-11.304
	c12.718-13.826,93.548-104.221,93.548-176.646C459.353,364.009,409.07,313.496,347.092,313.496z M347.092,501.446
	c-41.331,0-74.839-33.665-74.839-75.18c0-41.521,33.509-75.179,74.839-75.179s74.843,33.658,74.843,75.179
	C421.935,467.781,388.422,501.446,347.092,501.446z M347.092,388.675c-20.657,0-37.417,16.849-37.417,37.593
	c0,20.745,16.761,37.586,37.417,37.586c20.648,0,37.421-16.841,37.421-37.586C384.513,405.523,367.74,388.675,347.092,388.675z"/>
<path fill="#010101" d="M418.157,648.632c-7.179,0-13,6.594-13,14.721c0,9.454,9.361,21.255,10.833,23.06
	c0.607,0.747,1.118,1.476,2.167,1.476s1.558-0.729,2.167-1.476c1.473-1.805,10.833-13.604,10.833-23.06
	C431.157,655.226,425.334,648.632,418.157,648.632z M418.157,673.166c-4.786,0-8.667-4.396-8.667-9.813
	c0-5.42,3.88-9.813,8.667-9.813s8.667,4.394,8.667,9.813C426.824,668.771,422.943,673.166,418.157,673.166z M418.157,658.445
	c-2.393,0-4.333,2.198-4.333,4.906s1.94,4.906,4.333,4.906c2.391,0,4.333-2.198,4.333-4.906S420.548,658.445,418.157,658.445z"/>
<path fill="#010101" d="M644.646,636.633c-7.179,0-13,6.594-13,14.722c0,9.453,9.361,21.254,10.832,23.059
	c0.608,0.747,1.118,1.476,2.168,1.476c1.049,0,1.558-0.729,2.166-1.476c1.474-1.805,10.834-13.604,10.834-23.059
	C657.646,643.227,651.823,636.633,644.646,636.633z M644.646,661.167c-4.786,0-8.668-4.395-8.668-9.813
	c0-5.421,3.881-9.813,8.668-9.813c4.786,0,8.666,4.394,8.666,9.813C653.313,656.772,649.432,661.167,644.646,661.167z
	 M644.646,646.446c-2.393,0-4.334,2.198-4.334,4.906s1.941,4.906,4.334,4.906c2.391,0,4.332-2.198,4.332-4.906
	S647.037,646.446,644.646,646.446z"/>
<path fill="#010101" d="M859.135,594.591c-7.178,0-13,6.594-13,14.721c0,9.454,9.362,21.255,10.833,23.06
	c0.608,0.747,1.118,1.476,2.167,1.476s1.559-0.729,2.167-1.476c1.474-1.805,10.833-13.604,10.833-23.06
	C872.135,601.185,866.313,594.591,859.135,594.591z M859.135,619.125c-4.786,0-8.667-4.396-8.667-9.813
	c0-5.42,3.88-9.813,8.667-9.813s8.667,4.394,8.667,9.813C867.802,614.729,863.921,619.125,859.135,619.125z M859.135,604.404
	c-2.392,0-4.333,2.198-4.333,4.906s1.941,4.906,4.333,4.906s4.333-2.198,4.333-4.906S861.526,604.404,859.135,604.404z"/>
<path fill="#010101" d="M1027.126,648.632c-7.178,0-13,6.594-13,14.721c0,9.454,9.362,21.255,10.833,23.06
	c0.608,0.747,1.118,1.476,2.167,1.476s1.558-0.729,2.167-1.476c1.473-1.805,10.833-13.604,10.833-23.06
	C1040.126,655.226,1034.303,648.632,1027.126,648.632z M1027.126,673.166c-4.786,0-8.667-4.396-8.667-9.813
	c0-5.42,3.88-9.813,8.667-9.813s8.667,4.394,8.667,9.813C1035.793,668.771,1031.912,673.166,1027.126,673.166z M1027.126,658.445
	c-2.392,0-4.333,2.198-4.333,4.906s1.941,4.906,4.333,4.906c2.391,0,4.333-2.198,4.333-4.906S1029.517,658.445,1027.126,658.445z"/>
<path fill="#010101" d="M1451.605,636.633c-7.179,0-13,6.594-13,14.722c0,9.453,9.361,21.254,10.832,23.059
	c0.608,0.747,1.118,1.476,2.168,1.476c1.049,0,1.558-0.729,2.166-1.476c1.474-1.805,10.834-13.604,10.834-23.059
	C1464.605,643.227,1458.782,636.633,1451.605,636.633z M1451.605,661.167c-4.786,0-8.668-4.395-8.668-9.813
	c0-5.421,3.881-9.813,8.668-9.813c4.786,0,8.666,4.394,8.666,9.813C1460.271,656.772,1456.391,661.167,1451.605,661.167z
	 M1451.605,646.446c-2.393,0-4.334,2.198-4.334,4.906s1.941,4.906,4.334,4.906c2.391,0,4.332-2.198,4.332-4.906
	S1453.996,646.446,1451.605,646.446z"/>
<path fill="#010101" d="M1238.045,577.591c-7.178,0-13,6.594-13,14.721c0,9.454,9.362,21.255,10.833,23.06
	c0.608,0.747,1.118,1.476,2.167,1.476s1.559-0.729,2.167-1.476c1.474-1.805,10.833-13.604,10.833-23.06
	C1251.045,584.185,1245.222,577.591,1238.045,577.591z M1238.045,602.125c-4.786,0-8.667-4.396-8.667-9.813
	c0-5.42,3.88-9.813,8.667-9.813s8.667,4.394,8.667,9.813C1246.712,597.729,1242.831,602.125,1238.045,602.125z M1238.045,587.404
	c-2.392,0-4.333,2.198-4.333,4.906s1.941,4.906,4.333,4.906c2.391,0,4.333-2.198,4.333-4.906S1240.436,587.404,1238.045,587.404z"/>
<path id="boat" fill="#211915" d="M121.213,716.737c-0.528-0.712-1.417-1.139-2.367-1.139H83.2v-3.021h34.235
	c1.573,0,2.85-1.15,2.85-2.571c0-1.419-1.276-2.57-2.85-2.57H83.2v-0.977h26.51c1.195,0,2.264-0.674,2.675-1.687
	c0.412-1.012,0.079-2.148-0.832-2.847l-1.335-1.02c-0.521-0.398-1.025-0.809-1.534-1.217c0.104-0.236,0.175-0.486,0.238-0.738
	c-1.137-0.38-2.164-1.174-2.938-2.228c-2.059-1.634-3.983-3.467-5.831-5.463c-0.383-0.199-0.759-0.417-1.125-0.656
	c-5.321-5.896-9.654-12.465-12.878-19.522c-0.043-0.104-0.091-0.202-0.14-0.299c-1.061-2.35-2-4.752-2.81-7.203v-0.43
	c-0.151-0.293-0.284-0.608-0.389-0.956c-0.456-1.512-0.688-3.009-0.768-4.499c-0.597-1.996-1-4.063-1.208-6.059
	c-0.159-0.024-0.319-0.044-0.485-0.044c-1.574,0-2.85,1.151-2.85,2.57v3.771c-22.538,7.228-37.622,26.456-37.622,48.092v2.438
	c0,1.42,1.275,2.571,2.849,2.571H77.5v4.563H30.28c-1.296,0-2.43,0.789-2.757,1.923c-0.328,1.133,0.234,2.321,1.367,2.893
	l24.45,12.327c0.424,0.216,0.903,0.327,1.39,0.327h43.742c10.133,0,19.166-5.466,23.012-13.924
	C121.843,718.353,121.743,717.449,121.213,716.737z"/>
</svg>
